<svg version="1.0" xmlns="http://www.w3.org/2000/svg"
 width="180.000000pt" height="180.000000pt" viewBox="0 0 180.000000 180.000000"
 preserveAspectRatio="xMidYMid meet">
<g transform="translate(0.000000,180.000000) scale(0.100000,-0.100000)"
fill="#000000" stroke="none">
<path d="M751 816 c-6 -13 -10 -72 -10 -130 0 -57 -3 -125 -6 -149 -6 -37 -4
-47 10 -55 28 -15 55 -2 75 38 10 21 32 52 47 70 l28 33 6 -24 c4 -13 7 -47 8
-76 2 -85 33 -127 69 -91 16 16 14 97 -6 188 -17 74 -18 75 -50 78 -26 3 -39
-3 -67 -31 -19 -19 -38 -31 -41 -25 -3 5 -4 51 -2 101 l3 92 -27 3 c-22 3 -30
-2 -37 -22z"/>
<path d="M209 756 c-41 -23 -63 -79 -55 -138 10 -72 33 -124 72 -158 28 -24
44 -30 82 -30 63 0 96 18 100 54 3 26 1 28 -20 21 -48 -15 -89 -17 -103 -5 -8
7 -15 15 -15 19 0 3 29 26 65 50 38 26 68 54 71 67 7 29 -20 84 -53 108 -34
25 -110 31 -144 12z"/>
<path d="M575 755 c-40 -18 -99 -75 -121 -116 -28 -54 -24 -129 9 -173 57 -74
197 -84 232 -16 8 16 15 34 15 40 0 15 -33 12 -56 -5 -37 -28 -123 -9 -138 30
-24 63 13 130 92 168 50 24 68 46 59 71 -8 20 -50 21 -92 1z"/>
<path d="M1099 758 c-82 -69 -103 -187 -44 -251 55 -58 140 -19 166 76 16 60
-10 141 -54 168 -38 22 -48 23 -68 7z"/>
</g>
</svg>
